<svg width="76" height="14" viewBox="0 0 76 14" fill="none" xmlns="http://www.w3.org/2000/svg">
<path d="M8.45874 8.928C8.53341 8.928 8.59874 8.95833 8.65474 9.019L9.19374 9.6C8.78308 10.076 8.28374 10.447 7.69574 10.713C7.11241 10.979 6.40541 11.112 5.57474 11.112C4.85608 11.112 4.20274 10.9883 3.61474 10.741C3.02674 10.489 2.52508 10.139 2.10974 9.691C1.69441 9.23833 1.37241 8.697 1.14374 8.067C0.915076 7.437 0.800742 6.744 0.800742 5.988C0.800742 5.232 0.919742 4.539 1.15774 3.909C1.39574 3.279 1.72941 2.73767 2.15874 2.285C2.59274 1.83233 3.11074 1.48233 3.71274 1.235C4.31474 0.982999 4.97974 0.856999 5.70774 0.856999C6.42174 0.856999 7.05174 0.971333 7.59774 1.2C8.14374 1.42867 8.62441 1.739 9.03974 2.131L8.59174 2.754C8.56374 2.80067 8.52641 2.84033 8.47974 2.873C8.43774 2.901 8.37941 2.915 8.30474 2.915C8.22074 2.915 8.11808 2.87067 7.99674 2.782C7.87541 2.68867 7.71674 2.586 7.52074 2.474C7.32474 2.362 7.07974 2.26167 6.78574 2.173C6.49174 2.07967 6.13008 2.033 5.70074 2.033C5.18274 2.033 4.70908 2.124 4.27974 2.306C3.85041 2.48333 3.47941 2.74233 3.16674 3.083C2.85874 3.42367 2.61841 3.839 2.44574 4.329C2.27308 4.819 2.18674 5.372 2.18674 5.988C2.18674 6.61333 2.27541 7.171 2.45274 7.661C2.63474 8.151 2.87974 8.56633 3.18774 8.907C3.50041 9.243 3.86674 9.49967 4.28674 9.677C4.71141 9.85433 5.16874 9.943 5.65874 9.943C5.95741 9.943 6.22574 9.92667 6.46374 9.894C6.70641 9.85667 6.92808 9.80067 7.12874 9.726C7.33408 9.65133 7.52308 9.558 7.69574 9.446C7.87308 9.32933 8.04808 9.19167 8.22074 9.033C8.30008 8.963 8.37941 8.928 8.45874 8.928ZM13.3266 3.797C13.8446 3.797 14.3113 3.88333 14.7266 4.056C15.1419 4.22867 15.4966 4.47367 15.7906 4.791C16.0846 5.10833 16.3086 5.49333 16.4626 5.946C16.6213 6.394 16.7006 6.89567 16.7006 7.451C16.7006 8.011 16.6213 8.515 16.4626 8.963C16.3086 9.411 16.0846 9.79367 15.7906 10.111C15.4966 10.4283 15.1419 10.6733 14.7266 10.846C14.3113 11.014 13.8446 11.098 13.3266 11.098C12.8039 11.098 12.3326 11.014 11.9126 10.846C11.4973 10.6733 11.1426 10.4283 10.8486 10.111C10.5546 9.79367 10.3283 9.411 10.1696 8.963C10.0156 8.515 9.93859 8.011 9.93859 7.451C9.93859 6.89567 10.0156 6.394 10.1696 5.946C10.3283 5.49333 10.5546 5.10833 10.8486 4.791C11.1426 4.47367 11.4973 4.22867 11.9126 4.056C12.3326 3.88333 12.8039 3.797 13.3266 3.797ZM13.3266 10.125C14.0266 10.125 14.5493 9.89167 14.8946 9.425C15.2399 8.95367 15.4126 8.298 15.4126 7.458C15.4126 6.61333 15.2399 5.95533 14.8946 5.484C14.5493 5.01267 14.0266 4.777 13.3266 4.777C12.9719 4.777 12.6616 4.83767 12.3956 4.959C12.1343 5.08033 11.9149 5.25533 11.7376 5.484C11.5649 5.71267 11.4343 5.995 11.3456 6.331C11.2616 6.66233 11.2196 7.038 11.2196 7.458C11.2196 8.298 11.3923 8.95367 11.7376 9.425C12.0876 9.89167 12.6173 10.125 13.3266 10.125ZM19.5339 9.292C19.7626 9.6 20.0123 9.817 20.2829 9.943C20.5536 10.069 20.8569 10.132 21.1929 10.132C21.8556 10.132 22.3643 9.89633 22.7189 9.425C23.0736 8.95367 23.2509 8.28167 23.2509 7.409C23.2509 6.947 23.2089 6.55033 23.1249 6.219C23.0456 5.88767 22.9289 5.617 22.7749 5.407C22.6209 5.19233 22.4319 5.036 22.2079 4.938C21.9839 4.84 21.7296 4.791 21.4449 4.791C21.0389 4.791 20.6819 4.88433 20.3739 5.071C20.0706 5.25767 19.7906 5.52133 19.5339 5.862V9.292ZM19.4709 5.008C19.7696 4.63933 20.1149 4.343 20.5069 4.119C20.8989 3.895 21.3469 3.783 21.8509 3.783C22.2616 3.783 22.6326 3.86233 22.9639 4.021C23.2953 4.175 23.5776 4.406 23.8109 4.714C24.0443 5.01733 24.2239 5.39533 24.3499 5.848C24.4759 6.30067 24.5389 6.821 24.5389 7.409C24.5389 7.93167 24.4689 8.41933 24.3289 8.872C24.1889 9.32 23.9859 9.70967 23.7199 10.041C23.4586 10.3677 23.1366 10.6267 22.7539 10.818C22.3759 11.0047 21.9489 11.098 21.4729 11.098C21.0389 11.098 20.6656 11.0257 20.3529 10.881C20.0449 10.7317 19.7719 10.5263 19.5339 10.265V13.401H18.2809V3.909H19.0299C19.2073 3.909 19.3169 3.99533 19.3589 4.168L19.4709 5.008ZM32.0689 3.909L28.1139 13.093C28.0719 13.1863 28.0182 13.261 27.9529 13.317C27.8922 13.373 27.7965 13.401 27.6659 13.401H26.7419L28.0369 10.587L25.1109 3.909H26.1889C26.2962 3.909 26.3802 3.937 26.4409 3.993C26.5062 4.04433 26.5505 4.10267 26.5739 4.168L28.4709 8.634C28.5455 8.83 28.6085 9.03533 28.6599 9.25C28.7252 9.03067 28.7952 8.823 28.8699 8.627L30.7109 4.168C30.7389 4.09333 30.7855 4.03267 30.8509 3.986C30.9209 3.93467 30.9979 3.909 31.0819 3.909H32.0689ZM34.3526 5.33C34.5766 4.84467 34.852 4.46667 35.1786 4.196C35.5053 3.92067 35.9043 3.783 36.3756 3.783C36.525 3.783 36.6673 3.79933 36.8026 3.832C36.9426 3.86467 37.0663 3.916 37.1736 3.986L37.0826 4.917C37.0546 5.03367 36.9846 5.092 36.8726 5.092C36.8073 5.092 36.7116 5.078 36.5856 5.05C36.4596 5.022 36.3173 5.008 36.1586 5.008C35.9346 5.008 35.734 5.04067 35.5566 5.106C35.384 5.17133 35.2276 5.26933 35.0876 5.4C34.9523 5.526 34.8286 5.68467 34.7166 5.876C34.6093 6.06267 34.5113 6.27733 34.4226 6.52V11H33.1696V3.909H33.8836C34.019 3.909 34.1123 3.93467 34.1636 3.986C34.215 4.03733 34.25 4.126 34.2686 4.252L34.3526 5.33ZM39.5852 3.909V11H38.3392V3.909H39.5852ZM39.8512 1.683C39.8512 1.80433 39.8256 1.91867 39.7742 2.026C39.7276 2.12867 39.6622 2.222 39.5782 2.306C39.4989 2.38533 39.4032 2.44833 39.2912 2.495C39.1839 2.54167 39.0696 2.565 38.9482 2.565C38.8269 2.565 38.7126 2.54167 38.6052 2.495C38.5026 2.44833 38.4116 2.38533 38.3322 2.306C38.2529 2.222 38.1899 2.12867 38.1432 2.026C38.0966 1.91867 38.0732 1.80433 38.0732 1.683C38.0732 1.56167 38.0966 1.44733 38.1432 1.34C38.1899 1.228 38.2529 1.13233 38.3322 1.053C38.4116 0.969 38.5026 0.903666 38.6052 0.856999C38.7126 0.810333 38.8269 0.786999 38.9482 0.786999C39.0696 0.786999 39.1839 0.810333 39.2912 0.856999C39.4032 0.903666 39.4989 0.969 39.5782 1.053C39.6622 1.13233 39.7276 1.228 39.7742 1.34C39.8256 1.44733 39.8512 1.56167 39.8512 1.683ZM44.1035 7.535C44.3555 7.535 44.5772 7.5 44.7685 7.43C44.9598 7.36 45.1208 7.262 45.2515 7.136C45.3822 7.01 45.4802 6.86067 45.5455 6.688C45.6108 6.51067 45.6435 6.317 45.6435 6.107C45.6435 5.673 45.5105 5.32767 45.2445 5.071C44.9832 4.81433 44.6028 4.686 44.1035 4.686C43.5995 4.686 43.2145 4.81433 42.9485 5.071C42.6872 5.32767 42.5565 5.673 42.5565 6.107C42.5565 6.317 42.5892 6.51067 42.6545 6.688C42.7245 6.86067 42.8248 7.01 42.9555 7.136C43.0862 7.262 43.2472 7.36 43.4385 7.43C43.6298 7.5 43.8515 7.535 44.1035 7.535ZM46.3505 11.385C46.3505 11.2123 46.3015 11.0723 46.2035 10.965C46.1055 10.8577 45.9725 10.7737 45.8045 10.713C45.6412 10.6523 45.4498 10.6103 45.2305 10.587C45.0112 10.559 44.7778 10.538 44.5305 10.524C44.2878 10.51 44.0405 10.496 43.7885 10.482C43.5365 10.468 43.2938 10.4447 43.0605 10.412C42.7992 10.5333 42.5845 10.6873 42.4165 10.874C42.2532 11.056 42.1715 11.2707 42.1715 11.518C42.1715 11.6767 42.2112 11.8237 42.2905 11.959C42.3745 12.099 42.5005 12.218 42.6685 12.316C42.8365 12.4187 43.0465 12.498 43.2985 12.554C43.5552 12.6147 43.8562 12.645 44.2015 12.645C44.5375 12.645 44.8385 12.6147 45.1045 12.554C45.3705 12.4933 45.5945 12.407 45.7765 12.295C45.9632 12.183 46.1055 12.05 46.2035 11.896C46.3015 11.742 46.3505 11.5717 46.3505 11.385ZM47.6175 4.189V4.651C47.6175 4.805 47.5195 4.903 47.3235 4.945L46.5185 5.05C46.6772 5.358 46.7565 5.69867 46.7565 6.072C46.7565 6.41733 46.6888 6.73233 46.5535 7.017C46.4228 7.297 46.2408 7.53733 46.0075 7.738C45.7742 7.93867 45.4942 8.09267 45.1675 8.2C44.8408 8.30733 44.4862 8.361 44.1035 8.361C43.7722 8.361 43.4595 8.32133 43.1655 8.242C43.0162 8.33533 42.9018 8.43567 42.8225 8.543C42.7432 8.64567 42.7035 8.75067 42.7035 8.858C42.7035 9.026 42.7712 9.15433 42.9065 9.243C43.0465 9.327 43.2285 9.38767 43.4525 9.425C43.6765 9.46233 43.9308 9.48567 44.2155 9.495C44.5048 9.50433 44.7988 9.52067 45.0975 9.544C45.4008 9.56267 45.6948 9.59767 45.9795 9.649C46.2688 9.70033 46.5255 9.78433 46.7495 9.901C46.9735 10.0177 47.1532 10.1787 47.2885 10.384C47.4285 10.5893 47.4985 10.8553 47.4985 11.182C47.4985 11.4853 47.4215 11.7793 47.2675 12.064C47.1182 12.3487 46.9012 12.6007 46.6165 12.82C46.3318 13.044 45.9818 13.2213 45.5665 13.352C45.1558 13.4873 44.6915 13.555 44.1735 13.555C43.6555 13.555 43.2028 13.5037 42.8155 13.401C42.4282 13.2983 42.1062 13.1607 41.8495 12.988C41.5928 12.8153 41.3992 12.6147 41.2685 12.386C41.1425 12.162 41.0795 11.9263 41.0795 11.679C41.0795 11.329 41.1892 11.0327 41.4085 10.79C41.6278 10.5473 41.9288 10.3537 42.3115 10.209C42.1015 10.1157 41.9335 9.992 41.8075 9.838C41.6862 9.67933 41.6255 9.467 41.6255 9.201C41.6255 9.09833 41.6442 8.99333 41.6815 8.886C41.7188 8.774 41.7748 8.66433 41.8495 8.557C41.9288 8.445 42.0245 8.34 42.1365 8.242C42.2485 8.144 42.3792 8.05767 42.5285 7.983C42.1785 7.787 41.9055 7.528 41.7095 7.206C41.5135 6.87933 41.4155 6.50133 41.4155 6.072C41.4155 5.72667 41.4808 5.414 41.6115 5.134C41.7468 4.84933 41.9335 4.609 42.1715 4.413C42.4095 4.21233 42.6918 4.05833 43.0185 3.951C43.3498 3.84367 43.7115 3.79 44.1035 3.79C44.4115 3.79 44.6985 3.825 44.9645 3.895C45.2305 3.96033 45.4732 4.05833 45.6925 4.189H47.6175ZM50.1589 4.854C50.4623 4.532 50.7983 4.27533 51.1669 4.084C51.5356 3.89267 51.9603 3.797 52.4409 3.797C52.8283 3.797 53.1689 3.86233 53.4629 3.993C53.7616 4.119 54.0089 4.301 54.2049 4.539C54.4056 4.77233 54.5573 5.05467 54.6599 5.386C54.7626 5.71733 54.8139 6.08367 54.8139 6.485V11H53.5609V6.485C53.5609 5.94833 53.4373 5.533 53.1899 5.239C52.9473 4.94033 52.5763 4.791 52.0769 4.791C51.7083 4.791 51.3629 4.87967 51.0409 5.057C50.7236 5.23433 50.4296 5.47467 50.1589 5.778V11H48.9059V0.689H50.1589V4.854ZM58.7939 11.112C58.2339 11.112 57.8022 10.9557 57.4989 10.643C57.2002 10.3303 57.0509 9.88 57.0509 9.292V4.952H56.1969C56.1222 4.952 56.0592 4.931 56.0079 4.889C55.9565 4.84233 55.9309 4.77233 55.9309 4.679V4.182L57.0929 4.035L57.3799 1.844C57.3939 1.774 57.4242 1.718 57.4709 1.676C57.5222 1.62933 57.5875 1.606 57.6669 1.606H58.2969V4.049H60.3479V4.952H58.2969V9.208C58.2969 9.50667 58.3692 9.72833 58.5139 9.873C58.6585 10.0177 58.8452 10.09 59.0739 10.09C59.2045 10.09 59.3165 10.0737 59.4099 10.041C59.5079 10.0037 59.5919 9.964 59.6619 9.922C59.7319 9.88 59.7902 9.84267 59.8369 9.81C59.8882 9.77267 59.9325 9.754 59.9699 9.754C60.0352 9.754 60.0935 9.79367 60.1449 9.873L60.5089 10.468C60.2942 10.6687 60.0352 10.8273 59.7319 10.944C59.4285 11.056 59.1159 11.112 58.7939 11.112ZM71.8385 7.682C71.9085 7.67733 71.9715 7.703 72.0275 7.759L72.4475 8.207C72.1815 8.515 71.8548 8.75533 71.4675 8.928C71.0848 9.096 70.6228 9.18 70.0815 9.18C69.6242 9.18 69.2065 9.10067 68.8285 8.942C68.4552 8.78333 68.1332 8.56167 67.8625 8.277C67.5965 7.99233 67.3888 7.654 67.2395 7.262C67.0948 6.87 67.0225 6.44067 67.0225 5.974C67.0225 5.50267 67.1018 5.071 67.2605 4.679C67.4192 4.28233 67.6408 3.944 67.9255 3.664C68.2102 3.37933 68.5462 3.16 68.9335 3.006C69.3255 2.84733 69.7502 2.768 70.2075 2.768C70.7162 2.768 71.1455 2.84733 71.4955 3.006C71.8502 3.16 72.1605 3.36767 72.4265 3.629L72.1045 4.084C72.0812 4.112 72.0508 4.14 72.0135 4.168C71.9762 4.196 71.9318 4.21 71.8805 4.21C71.8152 4.21 71.7452 4.18433 71.6705 4.133C71.6005 4.08167 71.5072 4.02567 71.3905 3.965C71.2738 3.89967 71.1245 3.84133 70.9425 3.79C70.7652 3.734 70.5412 3.706 70.2705 3.706C69.9392 3.706 69.6428 3.75967 69.3815 3.867C69.1202 3.96967 68.8962 4.119 68.7095 4.315C68.5228 4.511 68.3805 4.749 68.2825 5.029C68.1845 5.309 68.1355 5.624 68.1355 5.974C68.1355 6.33333 68.1845 6.65533 68.2825 6.94C68.3852 7.22 68.5252 7.45567 68.7025 7.647C68.8798 7.83833 69.0898 7.98533 69.3325 8.088C69.5798 8.186 69.8482 8.235 70.1375 8.235C70.3802 8.235 70.5832 8.21633 70.7465 8.179C70.9098 8.14167 71.0522 8.09733 71.1735 8.046C71.2995 7.99 71.4115 7.92933 71.5095 7.864C71.6122 7.79867 71.7218 7.738 71.8385 7.682ZM64.9365 5.988C64.9365 5.51667 64.9972 5.064 65.1185 4.63C65.2398 4.19133 65.4125 3.783 65.6365 3.405C65.8605 3.02233 66.1265 2.677 66.4345 2.369C66.7472 2.05633 67.0925 1.788 67.4705 1.564C67.8485 1.34 68.2545 1.16733 68.6885 1.046C69.1225 0.924666 69.5752 0.863999 70.0465 0.863999C70.5178 0.863999 70.9705 0.924666 71.4045 1.046C71.8432 1.16733 72.2515 1.34 72.6295 1.564C73.0075 1.788 73.3528 2.05633 73.6655 2.369C73.9782 2.677 74.2442 3.02233 74.4635 3.405C74.6875 3.783 74.8602 4.19133 74.9815 4.63C75.1028 5.064 75.1635 5.51667 75.1635 5.988C75.1635 6.45467 75.1028 6.90733 74.9815 7.346C74.8602 7.78 74.6875 8.186 74.4635 8.564C74.2442 8.942 73.9782 9.28733 73.6655 9.6C73.3528 9.908 73.0075 10.174 72.6295 10.398C72.2515 10.622 71.8432 10.7947 71.4045 10.916C70.9705 11.0373 70.5178 11.098 70.0465 11.098C69.5752 11.098 69.1225 11.0373 68.6885 10.916C68.2545 10.7947 67.8485 10.622 67.4705 10.398C67.0925 10.174 66.7472 9.908 66.4345 9.6C66.1265 9.28733 65.8605 8.942 65.6365 8.564C65.4125 8.186 65.2398 7.78 65.1185 7.346C64.9972 6.912 64.9365 6.45933 64.9365 5.988ZM65.6435 5.988C65.6435 6.40333 65.6948 6.80233 65.7975 7.185C65.9002 7.56767 66.0448 7.927 66.2315 8.263C66.4228 8.59433 66.6515 8.89533 66.9175 9.166C67.1882 9.43667 67.4845 9.67 67.8065 9.866C68.1332 10.0573 68.4855 10.2067 68.8635 10.314C69.2415 10.4167 69.6358 10.468 70.0465 10.468C70.4572 10.468 70.8515 10.4167 71.2295 10.314C71.6122 10.2067 71.9668 10.0573 72.2935 9.866C72.6248 9.67 72.9235 9.43667 73.1895 9.166C73.4602 8.89533 73.6912 8.59433 73.8825 8.263C74.0738 7.927 74.2208 7.56767 74.3235 7.185C74.4308 6.80233 74.4845 6.40333 74.4845 5.988C74.4845 5.36267 74.3678 4.777 74.1345 4.231C73.9058 3.68033 73.5908 3.202 73.1895 2.796C72.7928 2.38533 72.3238 2.06333 71.7825 1.83C71.2412 1.592 70.6625 1.473 70.0465 1.473C69.6358 1.473 69.2415 1.52667 68.8635 1.634C68.4855 1.74133 68.1332 1.893 67.8065 2.089C67.4845 2.28033 67.1882 2.51367 66.9175 2.789C66.6515 3.06433 66.4228 3.37 66.2315 3.706C66.0448 4.03733 65.9002 4.39667 65.7975 4.784C65.6948 5.17133 65.6435 5.57267 65.6435 5.988Z" fill="#8B8B8B"/>
</svg>
