<svg width="131" height="14" viewBox="0 0 131 14" fill="none" xmlns="http://www.w3.org/2000/svg">
<path d="M7.93726 8.928C8.01192 8.928 8.07726 8.95833 8.13326 9.019L8.67226 9.6C8.26159 10.076 7.76226 10.447 7.17426 10.713C6.59092 10.979 5.88392 11.112 5.05326 11.112C4.33459 11.112 3.68126 10.9883 3.09326 10.741C2.50526 10.489 2.00359 10.139 1.58826 9.691C1.17292 9.23833 0.850925 8.697 0.622258 8.067C0.393591 7.437 0.279258 6.744 0.279258 5.988C0.279258 5.232 0.398258 4.539 0.636258 3.909C0.874258 3.279 1.20792 2.73767 1.63726 2.285C2.07126 1.83233 2.58926 1.48233 3.19126 1.235C3.79326 0.982999 4.45826 0.856999 5.18626 0.856999C5.90026 0.856999 6.53026 0.971333 7.07626 1.2C7.62226 1.42867 8.10293 1.739 8.51826 2.131L8.07026 2.754C8.04226 2.80067 8.00492 2.84033 7.95826 2.873C7.91626 2.901 7.85793 2.915 7.78326 2.915C7.69926 2.915 7.59659 2.87067 7.47526 2.782C7.35392 2.68867 7.19526 2.586 6.99926 2.474C6.80326 2.362 6.55826 2.26167 6.26426 2.173C5.97026 2.07967 5.60859 2.033 5.17926 2.033C4.66126 2.033 4.18759 2.124 3.75826 2.306C3.32892 2.48333 2.95792 2.74233 2.64526 3.083C2.33726 3.42367 2.09692 3.839 1.92426 4.329C1.75159 4.819 1.66526 5.372 1.66526 5.988C1.66526 6.61333 1.75392 7.171 1.93126 7.661C2.11326 8.151 2.35826 8.56633 2.66626 8.907C2.97892 9.243 3.34526 9.49967 3.76526 9.677C4.18992 9.85433 4.64726 9.943 5.13726 9.943C5.43592 9.943 5.70426 9.92667 5.94226 9.894C6.18492 9.85667 6.40659 9.80067 6.60726 9.726C6.81259 9.65133 7.00159 9.558 7.17426 9.446C7.35159 9.32933 7.52659 9.19167 7.69926 9.033C7.77859 8.963 7.85792 8.928 7.93726 8.928ZM12.8051 3.797C13.3231 3.797 13.7898 3.88333 14.2051 4.056C14.6204 4.22867 14.9751 4.47367 15.2691 4.791C15.5631 5.10833 15.7871 5.49333 15.9411 5.946C16.0998 6.394 16.1791 6.89567 16.1791 7.451C16.1791 8.011 16.0998 8.515 15.9411 8.963C15.7871 9.411 15.5631 9.79367 15.2691 10.111C14.9751 10.4283 14.6204 10.6733 14.2051 10.846C13.7898 11.014 13.3231 11.098 12.8051 11.098C12.2824 11.098 11.8111 11.014 11.3911 10.846C10.9758 10.6733 10.6211 10.4283 10.3271 10.111C10.0331 9.79367 9.80677 9.411 9.6481 8.963C9.4941 8.515 9.4171 8.011 9.4171 7.451C9.4171 6.89567 9.4941 6.394 9.6481 5.946C9.80677 5.49333 10.0331 5.10833 10.3271 4.791C10.6211 4.47367 10.9758 4.22867 11.3911 4.056C11.8111 3.88333 12.2824 3.797 12.8051 3.797ZM12.8051 10.125C13.5051 10.125 14.0278 9.89167 14.3731 9.425C14.7184 8.95367 14.8911 8.298 14.8911 7.458C14.8911 6.61333 14.7184 5.95533 14.3731 5.484C14.0278 5.01267 13.5051 4.777 12.8051 4.777C12.4504 4.777 12.1401 4.83767 11.8741 4.959C11.6128 5.08033 11.3934 5.25533 11.2161 5.484C11.0434 5.71267 10.9128 5.995 10.8241 6.331C10.7401 6.66233 10.6981 7.038 10.6981 7.458C10.6981 8.298 10.8708 8.95367 11.2161 9.425C11.5661 9.89167 12.0958 10.125 12.8051 10.125ZM19.0125 9.292C19.2411 9.6 19.4908 9.817 19.7615 9.943C20.0321 10.069 20.3355 10.132 20.6715 10.132C21.3341 10.132 21.8428 9.89633 22.1975 9.425C22.5521 8.95367 22.7295 8.28167 22.7295 7.409C22.7295 6.947 22.6875 6.55033 22.6035 6.219C22.5241 5.88767 22.4075 5.617 22.2535 5.407C22.0995 5.19233 21.9105 5.036 21.6865 4.938C21.4625 4.84 21.2081 4.791 20.9235 4.791C20.5175 4.791 20.1605 4.88433 19.8525 5.071C19.5491 5.25767 19.2691 5.52133 19.0125 5.862V9.292ZM18.9495 5.008C19.2481 4.63933 19.5935 4.343 19.9855 4.119C20.3775 3.895 20.8255 3.783 21.3295 3.783C21.7401 3.783 22.1111 3.86233 22.4425 4.021C22.7738 4.175 23.0561 4.406 23.2895 4.714C23.5228 5.01733 23.7025 5.39533 23.8285 5.848C23.9545 6.30067 24.0175 6.821 24.0175 7.409C24.0175 7.93167 23.9475 8.41933 23.8075 8.872C23.6675 9.32 23.4645 9.70967 23.1985 10.041C22.9371 10.3677 22.6151 10.6267 22.2325 10.818C21.8545 11.0047 21.4275 11.098 20.9515 11.098C20.5175 11.098 20.1441 11.0257 19.8315 10.881C19.5235 10.7317 19.2505 10.5263 19.0125 10.265V13.401H17.7595V3.909H18.5085C18.6858 3.909 18.7955 3.99533 18.8375 4.168L18.9495 5.008ZM31.5474 3.909L27.5924 13.093C27.5504 13.1863 27.4967 13.261 27.4314 13.317C27.3707 13.373 27.275 13.401 27.1444 13.401H26.2204L27.5154 10.587L24.5894 3.909H25.6674C25.7747 3.909 25.8587 3.937 25.9194 3.993C25.9847 4.04433 26.029 4.10267 26.0524 4.168L27.9494 8.634C28.024 8.83 28.087 9.03533 28.1384 9.25C28.2037 9.03067 28.2737 8.823 28.3484 8.627L30.1894 4.168C30.2174 4.09333 30.264 4.03267 30.3294 3.986C30.3994 3.93467 30.4764 3.909 30.5604 3.909H31.5474ZM33.8311 5.33C34.0551 4.84467 34.3305 4.46667 34.6571 4.196C34.9838 3.92067 35.3828 3.783 35.8541 3.783C36.0035 3.783 36.1458 3.79933 36.2811 3.832C36.4211 3.86467 36.5448 3.916 36.6521 3.986L36.5611 4.917C36.5331 5.03367 36.4631 5.092 36.3511 5.092C36.2858 5.092 36.1901 5.078 36.0641 5.05C35.9381 5.022 35.7958 5.008 35.6371 5.008C35.4131 5.008 35.2125 5.04067 35.0351 5.106C34.8625 5.17133 34.7061 5.26933 34.5661 5.4C34.4308 5.526 34.3071 5.68467 34.1951 5.876C34.0878 6.06267 33.9898 6.27733 33.9011 6.52V11H32.6481V3.909H33.3621C33.4975 3.909 33.5908 3.93467 33.6421 3.986C33.6935 4.03733 33.7285 4.126 33.7471 4.252L33.8311 5.33ZM39.0637 3.909V11H37.8177V3.909H39.0637ZM39.3297 1.683C39.3297 1.80433 39.3041 1.91867 39.2527 2.026C39.2061 2.12867 39.1407 2.222 39.0567 2.306C38.9774 2.38533 38.8817 2.44833 38.7697 2.495C38.6624 2.54167 38.5481 2.565 38.4267 2.565C38.3054 2.565 38.1911 2.54167 38.0837 2.495C37.9811 2.44833 37.8901 2.38533 37.8107 2.306C37.7314 2.222 37.6684 2.12867 37.6217 2.026C37.5751 1.91867 37.5517 1.80433 37.5517 1.683C37.5517 1.56167 37.5751 1.44733 37.6217 1.34C37.6684 1.228 37.7314 1.13233 37.8107 1.053C37.8901 0.969 37.9811 0.903666 38.0837 0.856999C38.1911 0.810333 38.3054 0.786999 38.4267 0.786999C38.5481 0.786999 38.6624 0.810333 38.7697 0.856999C38.8817 0.903666 38.9774 0.969 39.0567 1.053C39.1407 1.13233 39.2061 1.228 39.2527 1.34C39.3041 1.44733 39.3297 1.56167 39.3297 1.683ZM43.582 7.535C43.834 7.535 44.0557 7.5 44.247 7.43C44.4384 7.36 44.5994 7.262 44.73 7.136C44.8607 7.01 44.9587 6.86067 45.024 6.688C45.0894 6.51067 45.122 6.317 45.122 6.107C45.122 5.673 44.989 5.32767 44.723 5.071C44.4617 4.81433 44.0814 4.686 43.582 4.686C43.078 4.686 42.693 4.81433 42.427 5.071C42.1657 5.32767 42.035 5.673 42.035 6.107C42.035 6.317 42.0677 6.51067 42.133 6.688C42.203 6.86067 42.3034 7.01 42.434 7.136C42.5647 7.262 42.7257 7.36 42.917 7.43C43.1084 7.5 43.33 7.535 43.582 7.535ZM45.829 11.385C45.829 11.2123 45.78 11.0723 45.682 10.965C45.584 10.8577 45.451 10.7737 45.283 10.713C45.1197 10.6523 44.9284 10.6103 44.709 10.587C44.4897 10.559 44.2564 10.538 44.009 10.524C43.7664 10.51 43.519 10.496 43.267 10.482C43.015 10.468 42.7724 10.4447 42.539 10.412C42.2777 10.5333 42.063 10.6873 41.895 10.874C41.7317 11.056 41.65 11.2707 41.65 11.518C41.65 11.6767 41.6897 11.8237 41.769 11.959C41.853 12.099 41.979 12.218 42.147 12.316C42.315 12.4187 42.525 12.498 42.777 12.554C43.0337 12.6147 43.3347 12.645 43.68 12.645C44.016 12.645 44.317 12.6147 44.583 12.554C44.849 12.4933 45.073 12.407 45.255 12.295C45.4417 12.183 45.584 12.05 45.682 11.896C45.78 11.742 45.829 11.5717 45.829 11.385ZM47.096 4.189V4.651C47.096 4.805 46.998 4.903 46.802 4.945L45.997 5.05C46.1557 5.358 46.235 5.69867 46.235 6.072C46.235 6.41733 46.1674 6.73233 46.032 7.017C45.9014 7.297 45.7194 7.53733 45.486 7.738C45.2527 7.93867 44.9727 8.09267 44.646 8.2C44.3194 8.30733 43.9647 8.361 43.582 8.361C43.2507 8.361 42.938 8.32133 42.644 8.242C42.4947 8.33533 42.3804 8.43567 42.301 8.543C42.2217 8.64567 42.182 8.75067 42.182 8.858C42.182 9.026 42.2497 9.15433 42.385 9.243C42.525 9.327 42.707 9.38767 42.931 9.425C43.155 9.46233 43.4094 9.48567 43.694 9.495C43.9834 9.50433 44.2774 9.52067 44.576 9.544C44.8794 9.56267 45.1734 9.59767 45.458 9.649C45.7474 9.70033 46.004 9.78433 46.228 9.901C46.452 10.0177 46.6317 10.1787 46.767 10.384C46.907 10.5893 46.977 10.8553 46.977 11.182C46.977 11.4853 46.9 11.7793 46.746 12.064C46.5967 12.3487 46.3797 12.6007 46.095 12.82C45.8104 13.044 45.4604 13.2213 45.045 13.352C44.6344 13.4873 44.17 13.555 43.652 13.555C43.134 13.555 42.6814 13.5037 42.294 13.401C41.9067 13.2983 41.5847 13.1607 41.328 12.988C41.0714 12.8153 40.8777 12.6147 40.747 12.386C40.621 12.162 40.558 11.9263 40.558 11.679C40.558 11.329 40.6677 11.0327 40.887 10.79C41.1064 10.5473 41.4074 10.3537 41.79 10.209C41.58 10.1157 41.412 9.992 41.286 9.838C41.1647 9.67933 41.104 9.467 41.104 9.201C41.104 9.09833 41.1227 8.99333 41.16 8.886C41.1974 8.774 41.2534 8.66433 41.328 8.557C41.4074 8.445 41.503 8.34 41.615 8.242C41.727 8.144 41.8577 8.05767 42.007 7.983C41.657 7.787 41.384 7.528 41.188 7.206C40.992 6.87933 40.894 6.50133 40.894 6.072C40.894 5.72667 40.9594 5.414 41.09 5.134C41.2254 4.84933 41.412 4.609 41.65 4.413C41.888 4.21233 42.1704 4.05833 42.497 3.951C42.8284 3.84367 43.19 3.79 43.582 3.79C43.89 3.79 44.177 3.825 44.443 3.895C44.709 3.96033 44.9517 4.05833 45.171 4.189H47.096ZM49.6375 4.854C49.9408 4.532 50.2768 4.27533 50.6455 4.084C51.0141 3.89267 51.4388 3.797 51.9195 3.797C52.3068 3.797 52.6475 3.86233 52.9415 3.993C53.2401 4.119 53.4875 4.301 53.6835 4.539C53.8841 4.77233 54.0358 5.05467 54.1385 5.386C54.2411 5.71733 54.2925 6.08367 54.2925 6.485V11H53.0395V6.485C53.0395 5.94833 52.9158 5.533 52.6685 5.239C52.4258 4.94033 52.0548 4.791 51.5555 4.791C51.1868 4.791 50.8415 4.87967 50.5195 5.057C50.2021 5.23433 49.9081 5.47467 49.6375 5.778V11H48.3845V0.689H49.6375V4.854ZM58.2724 11.112C57.7124 11.112 57.2807 10.9557 56.9774 10.643C56.6787 10.3303 56.5294 9.88 56.5294 9.292V4.952H55.6754C55.6007 4.952 55.5377 4.931 55.4864 4.889C55.4351 4.84233 55.4094 4.77233 55.4094 4.679V4.182L56.5714 4.035L56.8584 1.844C56.8724 1.774 56.9027 1.718 56.9494 1.676C57.0007 1.62933 57.0661 1.606 57.1454 1.606H57.7754V4.049H59.8264V4.952H57.7754V9.208C57.7754 9.50667 57.8477 9.72833 57.9924 9.873C58.1371 10.0177 58.3237 10.09 58.5524 10.09C58.6831 10.09 58.7951 10.0737 58.8884 10.041C58.9864 10.0037 59.0704 9.964 59.1404 9.922C59.2104 9.88 59.2687 9.84267 59.3154 9.81C59.3667 9.77267 59.4111 9.754 59.4484 9.754C59.5137 9.754 59.5721 9.79367 59.6234 9.873L59.9874 10.468C59.7727 10.6687 59.5137 10.8273 59.2104 10.944C58.9071 11.056 58.5944 11.112 58.2724 11.112ZM71.317 7.682C71.387 7.67733 71.45 7.703 71.506 7.759L71.926 8.207C71.66 8.515 71.3333 8.75533 70.946 8.928C70.5633 9.096 70.1013 9.18 69.56 9.18C69.1027 9.18 68.685 9.10067 68.307 8.942C67.9337 8.78333 67.6117 8.56167 67.341 8.277C67.075 7.99233 66.8673 7.654 66.718 7.262C66.5733 6.87 66.501 6.44067 66.501 5.974C66.501 5.50267 66.5803 5.071 66.739 4.679C66.8977 4.28233 67.1193 3.944 67.404 3.664C67.6887 3.37933 68.0247 3.16 68.412 3.006C68.804 2.84733 69.2287 2.768 69.686 2.768C70.1947 2.768 70.624 2.84733 70.974 3.006C71.3287 3.16 71.639 3.36767 71.905 3.629L71.583 4.084C71.5597 4.112 71.5293 4.14 71.492 4.168C71.4547 4.196 71.4103 4.21 71.359 4.21C71.2937 4.21 71.2237 4.18433 71.149 4.133C71.079 4.08167 70.9857 4.02567 70.869 3.965C70.7523 3.89967 70.603 3.84133 70.421 3.79C70.2437 3.734 70.0197 3.706 69.749 3.706C69.4177 3.706 69.1213 3.75967 68.86 3.867C68.5987 3.96967 68.3747 4.119 68.188 4.315C68.0013 4.511 67.859 4.749 67.761 5.029C67.663 5.309 67.614 5.624 67.614 5.974C67.614 6.33333 67.663 6.65533 67.761 6.94C67.8637 7.22 68.0037 7.45567 68.181 7.647C68.3583 7.83833 68.5683 7.98533 68.811 8.088C69.0583 8.186 69.3267 8.235 69.616 8.235C69.8587 8.235 70.0617 8.21633 70.225 8.179C70.3883 8.14167 70.5307 8.09733 70.652 8.046C70.778 7.99 70.89 7.92933 70.988 7.864C71.0907 7.79867 71.2003 7.738 71.317 7.682ZM64.415 5.988C64.415 5.51667 64.4757 5.064 64.597 4.63C64.7183 4.19133 64.891 3.783 65.115 3.405C65.339 3.02233 65.605 2.677 65.913 2.369C66.2257 2.05633 66.571 1.788 66.949 1.564C67.327 1.34 67.733 1.16733 68.167 1.046C68.601 0.924666 69.0537 0.863999 69.525 0.863999C69.9963 0.863999 70.449 0.924666 70.883 1.046C71.3217 1.16733 71.73 1.34 72.108 1.564C72.486 1.788 72.8313 2.05633 73.144 2.369C73.4567 2.677 73.7227 3.02233 73.942 3.405C74.166 3.783 74.3387 4.19133 74.46 4.63C74.5813 5.064 74.642 5.51667 74.642 5.988C74.642 6.45467 74.5813 6.90733 74.46 7.346C74.3387 7.78 74.166 8.186 73.942 8.564C73.7227 8.942 73.4567 9.28733 73.144 9.6C72.8313 9.908 72.486 10.174 72.108 10.398C71.73 10.622 71.3217 10.7947 70.883 10.916C70.449 11.0373 69.9963 11.098 69.525 11.098C69.0537 11.098 68.601 11.0373 68.167 10.916C67.733 10.7947 67.327 10.622 66.949 10.398C66.571 10.174 66.2257 9.908 65.913 9.6C65.605 9.28733 65.339 8.942 65.115 8.564C64.891 8.186 64.7183 7.78 64.597 7.346C64.4757 6.912 64.415 6.45933 64.415 5.988ZM65.122 5.988C65.122 6.40333 65.1733 6.80233 65.276 7.185C65.3787 7.56767 65.5233 7.927 65.71 8.263C65.9013 8.59433 66.13 8.89533 66.396 9.166C66.6667 9.43667 66.963 9.67 67.285 9.866C67.6117 10.0573 67.964 10.2067 68.342 10.314C68.72 10.4167 69.1143 10.468 69.525 10.468C69.9357 10.468 70.33 10.4167 70.708 10.314C71.0907 10.2067 71.4453 10.0573 71.772 9.866C72.1033 9.67 72.402 9.43667 72.668 9.166C72.9387 8.89533 73.1697 8.59433 73.361 8.263C73.5523 7.927 73.6993 7.56767 73.802 7.185C73.9093 6.80233 73.963 6.40333 73.963 5.988C73.963 5.36267 73.8463 4.777 73.613 4.231C73.3843 3.68033 73.0693 3.202 72.668 2.796C72.2713 2.38533 71.8023 2.06333 71.261 1.83C70.7197 1.592 70.141 1.473 69.525 1.473C69.1143 1.473 68.72 1.52667 68.342 1.634C67.964 1.74133 67.6117 1.893 67.285 2.089C66.963 2.28033 66.6667 2.51367 66.396 2.789C66.13 3.06433 65.9013 3.37 65.71 3.706C65.5233 4.03733 65.3787 4.39667 65.276 4.784C65.1733 5.17133 65.122 5.57267 65.122 5.988ZM86.3938 9.894L86.3868 11H80.2058V0.968999H86.3868V2.075H81.5638V5.407H85.4698V6.471H81.5638V9.894H86.3938ZM93.8159 11H92.6189C92.5162 11 92.4345 10.9743 92.3739 10.923C92.3179 10.867 92.2712 10.8063 92.2339 10.741L90.4489 7.962C90.4302 8.02733 90.4092 8.09267 90.3859 8.158C90.3672 8.21867 90.3392 8.27467 90.3019 8.326L88.6499 10.741C88.6032 10.8063 88.5519 10.867 88.4959 10.923C88.4445 10.9743 88.3722 11 88.2789 11H87.1659L89.6509 7.36L87.2639 3.909H88.4609C88.5635 3.909 88.6382 3.92533 88.6849 3.958C88.7315 3.99067 88.7735 4.03733 88.8109 4.098L90.5539 6.758C90.5912 6.62267 90.6495 6.492 90.7289 6.366L92.2549 4.126C92.2969 4.06067 92.3412 4.00933 92.3879 3.972C92.4392 3.93 92.4999 3.909 92.5699 3.909H93.7179L91.3309 7.297L93.8159 11ZM96.2175 9.292C96.4462 9.6 96.6959 9.817 96.9665 9.943C97.2372 10.069 97.5405 10.132 97.8765 10.132C98.5392 10.132 99.0479 9.89633 99.4025 9.425C99.7572 8.95367 99.9345 8.28167 99.9345 7.409C99.9345 6.947 99.8925 6.55033 99.8085 6.219C99.7292 5.88767 99.6125 5.617 99.4585 5.407C99.3045 5.19233 99.1155 5.036 98.8915 4.938C98.6675 4.84 98.4132 4.791 98.1285 4.791C97.7225 4.791 97.3655 4.88433 97.0575 5.071C96.7542 5.25767 96.4742 5.52133 96.2175 5.862V9.292ZM96.1545 5.008C96.4532 4.63933 96.7985 4.343 97.1905 4.119C97.5825 3.895 98.0305 3.783 98.5345 3.783C98.9452 3.783 99.3162 3.86233 99.6475 4.021C99.9789 4.175 100.261 4.406 100.495 4.714C100.728 5.01733 100.908 5.39533 101.034 5.848C101.16 6.30067 101.223 6.821 101.223 7.409C101.223 7.93167 101.153 8.41933 101.013 8.872C100.873 9.32 100.67 9.70967 100.404 10.041C100.142 10.3677 99.8202 10.6267 99.4375 10.818C99.0595 11.0047 98.6325 11.098 98.1565 11.098C97.7225 11.098 97.3492 11.0257 97.0365 10.881C96.7285 10.7317 96.4555 10.5263 96.2175 10.265V13.401H94.9645V3.909H95.7135C95.8909 3.909 96.0005 3.99533 96.0425 4.168L96.1545 5.008ZM104.1 0.689V11H102.854V0.689H104.1ZM109.11 3.797C109.628 3.797 110.094 3.88333 110.51 4.056C110.925 4.22867 111.28 4.47367 111.574 4.791C111.868 5.10833 112.092 5.49333 112.246 5.946C112.404 6.394 112.484 6.89567 112.484 7.451C112.484 8.011 112.404 8.515 112.246 8.963C112.092 9.411 111.868 9.79367 111.574 10.111C111.28 10.4283 110.925 10.6733 110.51 10.846C110.094 11.014 109.628 11.098 109.11 11.098C108.587 11.098 108.116 11.014 107.696 10.846C107.28 10.6733 106.926 10.4283 106.632 10.111C106.338 9.79367 106.111 9.411 105.953 8.963C105.799 8.515 105.722 8.011 105.722 7.451C105.722 6.89567 105.799 6.394 105.953 5.946C106.111 5.49333 106.338 5.10833 106.632 4.791C106.926 4.47367 107.28 4.22867 107.696 4.056C108.116 3.88333 108.587 3.797 109.11 3.797ZM109.11 10.125C109.81 10.125 110.332 9.89167 110.678 9.425C111.023 8.95367 111.196 8.298 111.196 7.458C111.196 6.61333 111.023 5.95533 110.678 5.484C110.332 5.01267 109.81 4.777 109.11 4.777C108.755 4.777 108.445 4.83767 108.179 4.959C107.917 5.08033 107.698 5.25533 107.521 5.484C107.348 5.71267 107.217 5.995 107.129 6.331C107.045 6.66233 107.003 7.038 107.003 7.458C107.003 8.298 107.175 8.95367 107.521 9.425C107.871 9.89167 108.4 10.125 109.11 10.125ZM115.247 5.33C115.471 4.84467 115.746 4.46667 116.073 4.196C116.4 3.92067 116.799 3.783 117.27 3.783C117.419 3.783 117.562 3.79933 117.697 3.832C117.837 3.86467 117.961 3.916 118.068 3.986L117.977 4.917C117.949 5.03367 117.879 5.092 117.767 5.092C117.702 5.092 117.606 5.078 117.48 5.05C117.354 5.022 117.212 5.008 117.053 5.008C116.829 5.008 116.628 5.04067 116.451 5.106C116.278 5.17133 116.122 5.26933 115.982 5.4C115.847 5.526 115.723 5.68467 115.611 5.876C115.504 6.06267 115.406 6.27733 115.317 6.52V11H114.064V3.909H114.778C114.913 3.909 115.007 3.93467 115.058 3.986C115.109 4.03733 115.144 4.126 115.163 4.252L115.247 5.33ZM123.623 6.681C123.623 6.39167 123.581 6.128 123.497 5.89C123.417 5.64733 123.298 5.43967 123.14 5.267C122.986 5.08967 122.797 4.95433 122.573 4.861C122.349 4.763 122.094 4.714 121.81 4.714C121.212 4.714 120.739 4.889 120.389 5.239C120.043 5.58433 119.829 6.065 119.745 6.681H123.623ZM124.631 10.006C124.477 10.1927 124.292 10.356 124.078 10.496C123.863 10.6313 123.632 10.7433 123.385 10.832C123.142 10.9207 122.89 10.986 122.629 11.028C122.367 11.0747 122.108 11.098 121.852 11.098C121.362 11.098 120.909 11.0163 120.494 10.853C120.083 10.685 119.726 10.4423 119.423 10.125C119.124 9.803 118.891 9.40633 118.723 8.935C118.555 8.46367 118.471 7.92233 118.471 7.311C118.471 6.81633 118.545 6.35433 118.695 5.925C118.849 5.49567 119.068 5.12467 119.353 4.812C119.637 4.49467 119.985 4.24733 120.396 4.07C120.806 3.888 121.268 3.797 121.782 3.797C122.206 3.797 122.598 3.86933 122.958 4.014C123.322 4.154 123.634 4.35933 123.896 4.63C124.162 4.896 124.369 5.22733 124.519 5.624C124.668 6.016 124.743 6.464 124.743 6.968C124.743 7.164 124.722 7.29467 124.68 7.36C124.638 7.42533 124.558 7.458 124.442 7.458H119.703C119.717 7.906 119.777 8.29567 119.885 8.627C119.997 8.95833 120.151 9.236 120.347 9.46C120.543 9.67933 120.776 9.845 121.047 9.957C121.317 10.0643 121.621 10.118 121.957 10.118C122.269 10.118 122.538 10.083 122.762 10.013C122.99 9.93833 123.186 9.859 123.35 9.775C123.513 9.691 123.648 9.614 123.756 9.544C123.868 9.46933 123.963 9.432 124.043 9.432C124.145 9.432 124.225 9.47167 124.281 9.551L124.631 10.006ZM127.456 5.33C127.68 4.84467 127.955 4.46667 128.282 4.196C128.609 3.92067 129.008 3.783 129.479 3.783C129.628 3.783 129.771 3.79933 129.906 3.832C130.046 3.86467 130.17 3.916 130.277 3.986L130.186 4.917C130.158 5.03367 130.088 5.092 129.976 5.092C129.911 5.092 129.815 5.078 129.689 5.05C129.563 5.022 129.421 5.008 129.262 5.008C129.038 5.008 128.837 5.04067 128.66 5.106C128.487 5.17133 128.331 5.26933 128.191 5.4C128.056 5.526 127.932 5.68467 127.82 5.876C127.713 6.06267 127.615 6.27733 127.526 6.52V11H126.273V3.909H126.987C127.122 3.909 127.216 3.93467 127.267 3.986C127.318 4.03733 127.353 4.126 127.372 4.252L127.456 5.33Z" fill="#8B8B8B"/>
</svg>
